<svg width="512" height="512" viewBox="0 0 512 512" fill="none" xmlns="http://www.w3.org/2000/svg">
  <rect width="512" height="512" rx="112" fill="url(#bg)"/>
  <path d="M160 151C160 131.118 176.118 115 196 115H316C335.882 115 352 131.118 352 151V366C352 385.882 335.882 402 316 402H196C176.118 402 160 385.882 160 366V151Z" fill="white" fill-opacity="0.22"/>
  <path d="M176 139C176 116.909 193.909 99 216 99H296C318.091 99 336 116.909 336 139V360C336 382.091 318.091 400 296 400H216C193.909 400 176 382.091 176 360V139Z" fill="white"/>
  <path d="M213 107C213 93.7452 223.745 83 237 83H275C288.255 83 299 93.7452 299 107V124C299 130.627 293.627 136 287 136H225C218.373 136 213 130.627 213 124V107Z" fill="#1B43D8"/>
  <path d="M209 183C209 172.507 217.507 164 228 164H284C294.493 164 303 172.507 303 183C303 193.493 294.493 202 284 202H228C217.507 202 209 193.493 209 183Z" fill="#25A9F7"/>
  <path d="M209 240C209 229.507 217.507 221 228 221H302C312.493 221 321 229.507 321 240C321 250.493 312.493 259 302 259H228C217.507 259 209 250.493 209 240Z" fill="#25A9F7"/>
  <path d="M209 297C209 286.507 217.507 278 228 278H264C274.493 278 283 286.507 283 297C283 307.493 274.493 316 264 316H228C217.507 316 209 307.493 209 297Z" fill="#25A9F7"/>
  <path d="M337.5 235C341.107 235 344.232 237.502 345.021 241.022L352.978 276.521C353.267 277.81 354.161 278.879 355.376 279.391L390.668 294.258C397.015 296.932 396.81 306.006 390.349 308.39L356.353 320.932C354.937 321.455 353.893 322.675 353.596 324.156L346.128 361.377C344.76 368.195 335.095 368.3 333.58 361.514L325.379 324.779C325.068 323.384 324.066 322.246 322.721 321.762L288.004 309.263C281.496 306.92 281.25 297.828 287.619 295.138L323.618 279.929C324.848 279.409 325.748 278.319 326.024 277.012L329.969 258.359L333.981 241.075C334.778 237.534 337.882 235 341.5 235H337.5Z" fill="white"/>
  <defs>
    <linearGradient id="bg" x1="80" y1="30" x2="432" y2="482" gradientUnits="userSpaceOnUse">
      <stop stop-color="#2527C9"/>
      <stop offset="0.48" stop-color="#068CFF"/>
      <stop offset="1" stop-color="#79D8FF"/>
    </linearGradient>
  </defs>
</svg>
